<svg width="92" height="64" viewBox="0 0 92 64" fill="none" xmlns="http://www.w3.org/2000/svg">
<path d="M28.6125 49.1661C42.1678 42.2521 55.5664 35.0051 68.7692 27.4252C71.1198 26.0933 73.921 25.8583 76.4675 26.7396C78.446 27.4252 80.4636 27.8953 82.54 27.8953C86.0268 27.8953 89.7682 26.1912 91.1394 22.9986C92.2364 20.4328 91.5116 17.2402 89.4352 15.4383C87.3588 13.6167 83.6565 12.9116 81.2471 14.2631C82.5987 12.3436 83.8524 10.287 84.3225 7.99543C84.7731 5.70382 84.2834 3.09881 82.54 1.5319C81.208 0.337127 79.3274 -0.113355 77.5645 0.0237504C74.2344 0.278374 71.2373 2.37413 69.3568 5.1554C68.064 7.05529 66.8103 9.58193 66.0268 12.0498C65.3216 14.2631 63.872 16.1826 61.8544 17.3186C49.2589 24.5264 36.5067 31.4404 23.5782 38.041C21.1296 39.2946 18.2305 39.3729 15.7231 38.2369C14.0581 37.4534 12.3147 36.8854 10.4734 36.572C7.28042 36.0236 3.71529 36.8071 1.63889 39.275C-0.300385 41.5862 -0.555037 45.2292 1.07082 47.8342C2.69668 50.4392 6.08552 51.7711 9.0434 50.9876C6.39893 52.3979 5.18444 56.7069 6.35975 59.4686C7.53507 62.2303 10.5909 63.9735 13.6271 63.9539C16.6634 63.9539 19.6017 62.3674 21.6193 60.0953C22.7359 58.8418 23.3039 57.2161 23.6957 55.4925C24.3225 52.77 26.1247 50.4588 28.632 49.1857L28.6125 49.1661Z" fill="#F79437" fill-opacity="0.3"/>
</svg>
