<svg width="162" height="156" viewBox="0 0 162 156" fill="none" xmlns="http://www.w3.org/2000/svg">
<path d="M89.0208 81.2203C95.7128 91.1702 99.7106 103.553 101.84 114.242C103.578 122.975 104.447 132.36 100.84 140.529C95.452 152.651 79.6347 158.821 67.4675 153.564C54.8657 148.132 47.7393 133.142 34.4857 129.579C27.6199 127.755 19.9285 129.319 13.4538 126.277C7.76131 123.583 4.19807 117.718 2.15572 111.765C-0.277718 104.64 -0.972969 96.6883 1.76465 89.6929C5.76244 79.3954 16.2784 73.0518 26.7943 69.6628C38.918 65.7958 54.3443 60.3212 67.0764 63.9709C76.4625 66.7082 83.6325 73.1387 89.0208 81.1769V81.2203Z" fill="#69CBDA" fill-opacity="0.5"/>
<path d="M128.216 67.9684C124.219 73.052 118.656 77.1797 112.312 78.2659C105.924 79.3956 98.7978 77.0493 95.1911 71.6616C92.41 67.5339 92.0189 62.1462 93.2791 57.3233C94.4958 52.5004 97.2334 48.1989 100.319 44.3319C103.969 39.7263 108.358 35.4682 113.703 33.0351C119.091 30.6019 125.609 30.1674 130.78 33.0351C145.511 41.0732 135.473 58.7571 128.216 67.9684Z" fill="#69CBDA" fill-opacity="0.5"/>
<path d="M124.566 95.7324C120.221 100.295 116.875 106.769 118.787 112.765C120.829 119.108 128.086 122.367 134.734 122.801C143.643 123.323 153.029 119.673 158.2 112.417C163.458 104.987 164.153 89.4323 154.506 84.9135C144.859 80.3513 130.997 89.0412 124.566 95.7759V95.7324Z" fill="#69CBDA" fill-opacity="0.5"/>
<path d="M81.5898 49.198C77.8093 53.2388 72.0733 56.6278 66.8588 54.6726C62.6872 53.065 60.4276 48.5897 58.9501 44.3751C56.5167 37.3363 55.1261 29.7327 56.256 22.3897C58.1245 10.0936 74.9413 -8.85038 87.065 4.66237C97.6679 16.5241 91.1063 39.0308 81.5463 49.2414L81.5898 49.198Z" fill="#69CBDA" fill-opacity="0.5"/>
<path d="M28.5753 54.1943C24.2733 56.2798 18.9284 55.5412 14.8872 53.0211C10.8025 50.501 7.89101 46.4602 5.89212 42.1153C2.37232 34.5117 1.32943 24.9528 5.32722 17.3057C9.02084 10.2669 18.1462 4.27089 25.9245 8.44203C38.9608 15.4374 43.1759 47.112 28.5318 54.2377L28.5753 54.1943Z" fill="#69CBDA" fill-opacity="0.5"/>
</svg>
