<svg width="1077" height="1087" viewBox="0 0 1077 1087" fill="none" xmlns="http://www.w3.org/2000/svg">
<path d="M1044.01 216.394C1122.49 333.091 1169.38 478.326 1194.35 603.686C1214.74 706.114 1224.93 816.187 1182.63 911.991C1119.44 1054.17 933.935 1126.53 791.242 1064.87C643.452 1001.17 559.874 825.359 404.44 783.573C323.92 762.17 233.718 780.515 157.784 744.844C91.024 713.249 49.2352 644.453 25.2831 574.638C-3.25563 491.065 -11.4094 397.809 20.6967 315.764C67.5817 194.99 190.909 120.59 314.237 80.8416C456.421 35.4877 637.336 -28.7211 786.655 14.0849C896.733 46.1893 980.82 121.609 1044.01 215.884V216.394Z" fill="url(#paint0_linear_240_512)" fill-opacity="0.42"/>
<defs>
<linearGradient id="paint0_linear_240_512" x1="606" y1="0" x2="606" y2="1087" gradientUnits="userSpaceOnUse">
<stop stop-color="#F9EFA7"/>
</linearGradient>
</defs>
</svg>
